<svg width="286" height="110" viewBox="0 0 286 110" fill="none" xmlns="http://www.w3.org/2000/svg">
<rect width="286" height="110" fill="#255D8C"/>
<path d="M46.72 66.24C44.6133 66.24 42.6667 65.8933 40.88 65.2C39.0933 64.48 37.5467 63.48 36.24 62.2C34.9333 60.92 33.9067 59.4133 33.16 57.68C32.44 55.9467 32.08 54.0533 32.08 52C32.08 49.9467 32.44 48.0533 33.16 46.32C33.9067 44.5867 34.9333 43.08 36.24 41.8C37.5733 40.52 39.1333 39.5333 40.92 38.84C42.7067 38.12 44.6533 37.76 46.76 37.76C48.7867 37.76 50.6933 38.1067 52.48 38.8C54.2667 39.4667 55.7733 40.48 57 41.84L55.12 43.72C53.9733 42.5467 52.7067 41.7067 51.32 41.2C49.9333 40.6667 48.44 40.4 46.84 40.4C45.16 40.4 43.6 40.6933 42.16 41.28C40.72 41.84 39.4667 42.6533 38.4 43.72C37.3333 44.76 36.4933 45.9867 35.88 47.4C35.2933 48.7867 35 50.32 35 52C35 53.68 35.2933 55.2267 35.88 56.64C36.4933 58.0267 37.3333 59.2533 38.4 60.32C39.4667 61.36 40.72 62.1733 42.16 62.76C43.6 63.32 45.16 63.6 46.84 63.6C48.44 63.6 49.9333 63.3333 51.32 62.8C52.7067 62.2667 53.9733 61.4133 55.12 60.24L57 62.12C55.7733 63.48 54.2667 64.5067 52.48 65.2C50.6933 65.8933 48.7733 66.24 46.72 66.24ZM62.71 66V36.32H65.55V66H62.71ZM73.4522 66V45H76.2922V66H73.4522ZM74.8922 40.36C74.3055 40.36 73.8122 40.16 73.4122 39.76C73.0122 39.36 72.8122 38.88 72.8122 38.32C72.8122 37.76 73.0122 37.2933 73.4122 36.92C73.8122 36.52 74.3055 36.32 74.8922 36.32C75.4789 36.32 75.9722 36.5067 76.3722 36.88C76.7722 37.2533 76.9722 37.72 76.9722 38.28C76.9722 38.8667 76.7722 39.36 76.3722 39.76C75.9989 40.16 75.5055 40.36 74.8922 40.36ZM92.9144 66.2C90.8344 66.2 88.9677 65.7467 87.3144 64.84C85.6877 63.9067 84.4077 62.64 83.4744 61.04C82.541 59.4133 82.0744 57.56 82.0744 55.48C82.0744 53.3733 82.541 51.52 83.4744 49.92C84.4077 48.32 85.6877 47.0667 87.3144 46.16C88.9677 45.2533 90.8344 44.8 92.9144 44.8C94.701 44.8 96.3144 45.1467 97.7544 45.84C99.1944 46.5333 100.328 47.5733 101.154 48.96L99.0344 50.4C98.3144 49.3333 97.421 48.5467 96.3544 48.04C95.2877 47.5333 94.1277 47.28 92.8744 47.28C91.381 47.28 90.0344 47.6267 88.8344 48.32C87.6344 48.9867 86.6877 49.9333 85.9944 51.16C85.301 52.3867 84.9544 53.8267 84.9544 55.48C84.9544 57.1333 85.301 58.5733 85.9944 59.8C86.6877 61.0267 87.6344 61.9867 88.8344 62.68C90.0344 63.3467 91.381 63.68 92.8744 63.68C94.1277 63.68 95.2877 63.4267 96.3544 62.92C97.421 62.4133 98.3144 61.64 99.0344 60.6L101.154 62.04C100.328 63.4 99.1944 64.44 97.7544 65.16C96.3144 65.8533 94.701 66.2 92.9144 66.2ZM108.661 60.56L108.741 56.92L121.821 45H125.301L116.061 53.84L114.461 55.2L108.661 60.56ZM106.421 66V36.32H109.261V66H106.421ZM122.701 66L113.941 55.08L115.781 52.88L126.181 66H122.701ZM133.684 51.56H148.484V54.12H133.684V51.56ZM134.004 66H131.044V38H150.244V40.56H134.004V66ZM155.757 66V45H158.597V66H155.757ZM157.197 40.36C156.61 40.36 156.117 40.16 155.717 39.76C155.317 39.36 155.117 38.88 155.117 38.32C155.117 37.76 155.317 37.2933 155.717 36.92C156.117 36.52 156.61 36.32 157.197 36.32C157.784 36.32 158.277 36.5067 158.677 36.88C159.077 37.2533 159.277 37.72 159.277 38.28C159.277 38.8667 159.077 39.36 158.677 39.76C158.304 40.16 157.81 40.36 157.197 40.36ZM177.219 44.8C178.926 44.8 180.419 45.1333 181.699 45.8C183.006 46.44 184.019 47.4267 184.739 48.76C185.486 50.0933 185.859 51.7733 185.859 53.8V66H183.019V54.08C183.019 51.8667 182.459 50.2 181.339 49.08C180.246 47.9333 178.699 47.36 176.699 47.36C175.206 47.36 173.899 47.6667 172.779 48.28C171.686 48.8667 170.832 49.7333 170.219 50.88C169.632 52 169.339 53.36 169.339 54.96V66H166.499V45H169.219V50.76L168.779 49.68C169.446 48.16 170.512 46.9733 171.979 46.12C173.446 45.24 175.192 44.8 177.219 44.8ZM201.89 66.2C199.89 66.2 198.09 65.7467 196.49 64.84C194.917 63.9333 193.677 62.68 192.77 61.08C191.864 59.4533 191.41 57.5867 191.41 55.48C191.41 53.3467 191.864 51.48 192.77 49.88C193.677 48.28 194.917 47.04 196.49 46.16C198.09 45.2533 199.89 44.8 201.89 44.8C203.73 44.8 205.37 45.2133 206.81 46.04C208.277 46.8667 209.437 48.08 210.29 49.68C211.17 51.2533 211.61 53.1867 211.61 55.48C211.61 57.7467 211.184 59.68 210.33 61.28C209.477 62.88 208.317 64.1067 206.85 64.96C205.41 65.7867 203.757 66.2 201.89 66.2ZM202.09 63.68C203.584 63.68 204.917 63.3467 206.09 62.68C207.29 61.9867 208.224 61.0267 208.89 59.8C209.584 58.5467 209.93 57.1067 209.93 55.48C209.93 53.8267 209.584 52.3867 208.89 51.16C208.224 49.9333 207.29 48.9867 206.09 48.32C204.917 47.6267 203.584 47.28 202.09 47.28C200.624 47.28 199.304 47.6267 198.13 48.32C196.957 48.9867 196.024 49.9333 195.33 51.16C194.637 52.3867 194.29 53.8267 194.29 55.48C194.29 57.1067 194.637 58.5467 195.33 59.8C196.024 61.0267 196.957 61.9867 198.13 62.68C199.304 63.3467 200.624 63.68 202.09 63.68ZM210.01 66V59.68L210.29 55.44L209.89 51.2V36.32H212.73V66H210.01ZM229.56 66.2C227.373 66.2 225.453 65.7467 223.8 64.84C222.146 63.9067 220.853 62.64 219.92 61.04C218.986 59.4133 218.52 57.56 218.52 55.48C218.52 53.4 218.96 51.56 219.84 49.96C220.746 48.36 221.973 47.1067 223.52 46.2C225.093 45.2667 226.853 44.8 228.8 44.8C230.773 44.8 232.52 45.2533 234.04 46.16C235.586 47.04 236.8 48.2933 237.68 49.92C238.56 51.52 239 53.3733 239 55.48C239 55.6133 238.986 55.76 238.96 55.92C238.96 56.0533 238.96 56.2 238.96 56.36H220.68V54.24H237.44L236.32 55.08C236.32 53.56 235.986 52.2133 235.32 51.04C234.68 49.84 233.8 48.9067 232.68 48.24C231.56 47.5733 230.266 47.24 228.8 47.24C227.36 47.24 226.066 47.5733 224.92 48.24C223.773 48.9067 222.88 49.84 222.24 51.04C221.6 52.24 221.28 53.6133 221.28 55.16V55.6C221.28 57.2 221.626 58.6133 222.32 59.84C223.04 61.04 224.026 61.9867 225.28 62.68C226.56 63.3467 228.013 63.68 229.64 63.68C230.92 63.68 232.106 63.4533 233.2 63C234.32 62.5467 235.28 61.8533 236.08 60.92L237.68 62.76C236.746 63.88 235.573 64.7333 234.16 65.32C232.773 65.9067 231.24 66.2 229.56 66.2ZM244.78 66V45H247.5V50.72L247.22 49.72C247.807 48.12 248.794 46.9067 250.18 46.08C251.567 45.2267 253.287 44.8 255.34 44.8V47.56C255.234 47.56 255.127 47.56 255.02 47.56C254.914 47.5333 254.807 47.52 254.7 47.52C252.487 47.52 250.754 48.2 249.5 49.56C248.247 50.8933 247.62 52.8 247.62 55.28V66H244.78Z" fill="white"/>
</svg>
